<svg xmlns="http://www.w3.org/2000/svg" xmlns:xlink="http://www.w3.org/1999/xlink" viewBox="0 0 500 500"><defs><clipPath id="freepik--clip-path--inject-2"><path d="M384.3,248.75s-34.85,10.8-41.41,2.27l.89-43.51h5.29l6.22,30.65,28.56-5.23S387.51,244.27,384.3,248.75Z" style="fill:#fff;stroke:#263238;stroke-linecap:round;stroke-linejoin:round"></path></clipPath><clipPath id="freepik--clip-path-2--inject-2"><path d="M380.88,249.89,387,287.57c-.16,24.42,11.49,20.75,19.58,20.68,9.35-.08,23.54-9.35,16.58-23.78l2.68-52.23L409.55,231c-5.37-.42-27.37.27-29.12,3.08C375.89,241.37,380.88,249.89,380.88,249.89Z" style="fill:#fff;stroke:#263238;stroke-linecap:round;stroke-linejoin:round"></path></clipPath><clipPath id="freepik--clip-path-3--inject-2"><path d="M441.19,255.8a36.9,36.9,0,0,1-5.32-11.7,30.51,30.51,0,0,0-1.82-6.11,11,11,0,0,0-7.89-5.85,4.16,4.16,0,0,0-2.16.1c-1.45.55-2.09,2.22-2.38,3.74a20.26,20.26,0,0,0,.54,9.81c.67,2.16,8.72,17.82,14,23.89C435.7,266.62,439.22,256.39,441.19,255.8Z" style="fill:#fff;stroke:#263238;stroke-linecap:round;stroke-linejoin:round"></path></clipPath></defs><g id="freepik--background-simple--inject-2"><path d="M92.16,138c70.07-79.73,190.37-93,244-67.39a235.56,235.56,0,0,1,57.21,38.23q3.36,3,6.53,6.17a223.63,223.63,0,0,1,18.53,20.67A217.54,217.54,0,0,1,437,163.22a202.64,202.64,0,0,1,18.53,43.47,153.78,153.78,0,0,1,5.78,30.51c1.53,19.41.2,39-2.41,58.25q-.36,2.76-.78,5.52c-.07.51-.14,1-.22,1.53-2.87,19.17-6.93,38.51-16,55.23C432,376,397.46,426.69,360,428c-19.43.69-36.59-12-54.2-21-28-14.28-59.69-17.08-90.59-17.91s-62.18.06-92.29-7.6S63.29,356.24,47.9,327c-5.23-9.94-9.2-24.26-9.21-35.72,0-33.81,5.52-63.38,15.16-89.07a209.81,209.81,0,0,1,10.69-23.93,203.54,203.54,0,0,1,20.92-32.17Z" style="fill:#FFFFFF"></path><g style="opacity:0.7000000000000001"><path d="M92.16,138c70.07-79.73,190.37-93,244-67.39a235.56,235.56,0,0,1,57.21,38.23q3.36,3,6.53,6.17a223.63,223.63,0,0,1,18.53,20.67A217.54,217.54,0,0,1,437,163.22a202.64,202.64,0,0,1,18.53,43.47,153.78,153.78,0,0,1,5.78,30.51c1.53,19.41.2,39-2.41,58.25q-.36,2.76-.78,5.52c-.07.51-.14,1-.22,1.53-2.87,19.17-6.93,38.51-16,55.23C432,376,397.46,426.69,360,428c-19.43.69-36.59-12-54.2-21-28-14.28-59.69-17.08-90.59-17.91s-62.18.06-92.29-7.6S63.29,356.24,47.9,327c-5.23-9.94-9.2-24.26-9.21-35.72,0-33.81,5.52-63.38,15.16-89.07a209.81,209.81,0,0,1,10.69-23.93,203.54,203.54,0,0,1,20.92-32.17Z" style="fill:#fff"></path></g></g><g id="freepik--Floor--inject-2"><line x1="38.69" y1="426.84" x2="468.74" y2="426.84" style="fill:none;stroke:#263238;stroke-linecap:round;stroke-linejoin:round"></line></g><g id="freepik--Building--inject-2"><line x1="53.85" y1="300.97" x2="53.85" y2="202.16" style="fill:none;stroke:#263238;stroke-linecap:round;stroke-linejoin:round"></line><line x1="362.35" y1="300.97" x2="350.14" y2="300.97" style="fill:none;stroke:#263238;stroke-linecap:round;stroke-linejoin:round"></line><line x1="458.1" y1="300.97" x2="433.23" y2="300.97" style="fill:none;stroke:#263238;stroke-linecap:round;stroke-linejoin:round"></line><polyline points="349.02 150.86 393.09 150.86 393.09 108.88" style="fill:none;stroke:#263238;stroke-linecap:round;stroke-linejoin:round"></polyline><polyline points="92.16 138.04 138.98 138.04 138.98 172.19 190.3 172.19" style="fill:none;stroke:#263238;stroke-linecap:round;stroke-linejoin:round"></polyline><line x1="64.54" y1="253.69" x2="64.54" y2="178.23" style="fill:none;stroke:#263238;stroke-linecap:round;stroke-linejoin:round"></line><line x1="85.46" y1="145.48" x2="85.46" y2="204.62" style="fill:none;stroke:#263238;stroke-linecap:round;stroke-linejoin:round"></line><line x1="106.37" y1="145.48" x2="106.37" y2="197.76" style="fill:none;stroke:#263238;stroke-linecap:round;stroke-linejoin:round"></line><line x1="127.28" y1="145.48" x2="127.28" y2="236.93" style="fill:none;stroke:#263238;stroke-linecap:round;stroke-linejoin:round"></line><polyline points="227.45 132.51 227.45 72.38 312.58 72.38 312.58 132.51" style="fill:none;stroke:#263238;stroke-linecap:round;stroke-linejoin:round"></polyline><polyline points="233.69 102.25 233.69 79.52 249.43 79.52" style="fill:none;stroke:#263238;stroke-linecap:round;stroke-linejoin:round"></polyline><polyline points="252.89 102.25 252.89 79.52 268.63 79.52" style="fill:none;stroke:#263238;stroke-linecap:round;stroke-linejoin:round"></polyline><polyline points="272.09 102.25 272.09 79.52 287.83 79.52" style="fill:none;stroke:#263238;stroke-linecap:round;stroke-linejoin:round"></polyline><polyline points="291.29 102.25 291.29 79.52 307.03 79.52" style="fill:none;stroke:#263238;stroke-linecap:round;stroke-linejoin:round"></polyline><polyline points="233.69 132.51 233.69 109.78 249.43 109.78" style="fill:none;stroke:#263238;stroke-linecap:round;stroke-linejoin:round"></polyline><polyline points="252.89 132.51 252.89 109.78 268.63 109.78" style="fill:none;stroke:#263238;stroke-linecap:round;stroke-linejoin:round"></polyline><polyline points="272.09 132.51 272.09 109.78 287.83 109.78" style="fill:none;stroke:#263238;stroke-linecap:round;stroke-linejoin:round"></polyline><polyline points="291.29 132.51 291.29 109.78 307.03 109.78" style="fill:none;stroke:#263238;stroke-linecap:round;stroke-linejoin:round"></polyline><line x1="399.91" y1="114.08" x2="399.91" y2="189.43" style="fill:none;stroke:#263238;stroke-linecap:round;stroke-linejoin:round"></line><line x1="430.82" y1="295.45" x2="433.23" y2="295.45" style="fill:none;stroke:#263238;stroke-linecap:round;stroke-linejoin:round"></line><line x1="418.44" y1="135.72" x2="418.44" y2="220.08" style="fill:none;stroke:#263238;stroke-linecap:round;stroke-linejoin:round"></line><polyline points="436.98 273.91 436.98 295.45 451.77 295.45" style="fill:none;stroke:#263238;stroke-linecap:round;stroke-linejoin:round"></polyline><line x1="436.98" y1="163.22" x2="436.98" y2="220.51" style="fill:none;stroke:#263238;stroke-linecap:round;stroke-linejoin:round"></line><polyline points="455.51 206.69 455.51 295.45 458.88 295.45" style="fill:none;stroke:#263238;stroke-linecap:round;stroke-linejoin:round"></polyline></g><g id="freepik--Mail--inject-2"><rect x="38.69" y="302.78" width="191" height="124.06" style="fill:#fff;stroke:#263238;stroke-linecap:round;stroke-linejoin:round"></rect><polygon points="38.69 302.78 134.19 364.81 229.69 302.78 38.69 302.78" style="fill:#fff;stroke:#263238;stroke-linecap:round;stroke-linejoin:round"></polygon><line x1="105.48" y1="346.16" x2="38.69" y2="426.84" style="fill:none;stroke:#263238;stroke-linecap:round;stroke-linejoin:round"></line><line x1="163.42" y1="346.16" x2="230.21" y2="426.84" style="fill:none;stroke:#263238;stroke-linecap:round;stroke-linejoin:round"></line></g><g id="freepik--Device--inject-2"><path d="M331.9,144.48H287.5a7.16,7.16,0,0,0-6.26,3.7l0,0a12.61,12.61,0,0,1-22.06,0h0a7.15,7.15,0,0,0-6.29-3.75H208.54a9.27,9.27,0,0,0-9.39,9.15V404a9.28,9.28,0,0,0,9.39,9.15H331.9a9.29,9.29,0,0,0,9.4-9.15V153.63A9.28,9.28,0,0,0,331.9,144.48Z" style="fill:#FFFFFF"></path><path d="M345.63,150.86A12.82,12.82,0,0,0,332.81,138H207.64a12.81,12.81,0,0,0-12.82,12.81h0V414a12.81,12.81,0,0,0,12.81,12.81H332.81A12.82,12.82,0,0,0,345.63,414h0ZM341.3,404a9.29,9.29,0,0,1-9.4,9.15H208.54a9.28,9.28,0,0,1-9.39-9.15V153.63a9.27,9.27,0,0,1,9.39-9.15h44.37a7.13,7.13,0,0,1,6.28,3.75h0a12.61,12.61,0,0,0,22.06,0l0,0a7.14,7.14,0,0,1,6.26-3.7h44.4a9.27,9.27,0,0,1,9.39,9.15Z" style="fill:#263238"></path><polygon points="303.1 138.04 219.95 426.83 252.97 426.8 333.04 138.04 303.1 138.04" style="fill:#fff;opacity:0.2"></polygon><polygon points="290.7 138.04 202.79 426.84 207.6 426.81 293.86 138.04 290.7 138.04" style="fill:#fff;opacity:0.2"></polygon><path d="M292.65,352.73a21.46,21.46,0,0,1-21.53,21.92,22.39,22.39,0,0,1-22.3-21.92,21.46,21.46,0,0,1,21.53-21.91A22.38,22.38,0,0,1,292.65,352.73Z" style="fill:#fff;stroke:#263238;stroke-linecap:round;stroke-linejoin:round"></path><path d="M263.55,369.09a16.42,16.42,0,0,1-5.49-3.38,15,15,0,0,1-3.63-5.49,19.54,19.54,0,0,1-1.31-7.3,17.46,17.46,0,0,1,1.11-6.23,15.67,15.67,0,0,1,3-5,20,20,0,0,1,9.57-5.82,21.18,21.18,0,0,1,5.54-.73,18.88,18.88,0,0,1,4.61.55,14.78,14.78,0,0,1,4.13,1.71,13.76,13.76,0,0,1,3.37,2.85,12.58,12.58,0,0,1,2.26,4.1,16.43,16.43,0,0,1,.82,5.29A14.68,14.68,0,0,1,284,359.1a13.09,13.09,0,0,1-3.4,2.75,7.55,7.55,0,0,1-3.62,1,4,4,0,0,1-2.44-.79,2.84,2.84,0,0,1-1.15-2.26,7,7,0,0,1-6.05,3.15,6.3,6.3,0,0,1-5-2.12,7.66,7.66,0,0,1-1.85-5.23,14,14,0,0,1,.81-4.62,16,16,0,0,1,2.21-4.18,11,11,0,0,1,3.5-3.05,9.06,9.06,0,0,1,4.49-1.17,6.59,6.59,0,0,1,3.14.76,5.16,5.16,0,0,1,2.18,2.23l.2-.67a1.87,1.87,0,0,1,2.37-1.17,2,2,0,0,1,.51.26,1.2,1.2,0,0,1,.45,1,1.71,1.71,0,0,1-.09.55l-3.24,10.78a10.72,10.72,0,0,0-.55,2.54,1,1,0,0,0,1.19,1.16,4.47,4.47,0,0,0,3-1.43,10.27,10.27,0,0,0,2.43-3.79,13.26,13.26,0,0,0,.94-4.9,14.3,14.3,0,0,0-.64-4.36,10.65,10.65,0,0,0-1.72-3.37,10.19,10.19,0,0,0-2.61-2.33,11.34,11.34,0,0,0-3.22-1.39,14,14,0,0,0-3.58-.46,16.52,16.52,0,0,0-4.53.64,16.09,16.09,0,0,0-4.29,1.93,16.74,16.74,0,0,0-3.6,3.06,13.4,13.4,0,0,0-2.48,4.24,14.89,14.89,0,0,0-.93,5.29,16.33,16.33,0,0,0,1.14,6.25,11.94,11.94,0,0,0,3.12,4.5,14,14,0,0,0,4.52,2.63,16.08,16.08,0,0,0,5.45.92,19.67,19.67,0,0,0,5.85-.89,1.7,1.7,0,0,1,.59-.1,1.33,1.33,0,0,1,1,.43,1.4,1.4,0,0,1,.39,1,1.21,1.21,0,0,1-.94,1.28,25.65,25.65,0,0,1-7.28,1.12A19.56,19.56,0,0,1,263.55,369.09Zm8.26-10.37a5.65,5.65,0,0,0,2.09-2.88l2.09-7.35-.14-.3a3.51,3.51,0,0,0-.47-.67,6.88,6.88,0,0,0-.82-.8,4.24,4.24,0,0,0-1.25-.69,5,5,0,0,0-3.63.13,5.85,5.85,0,0,0-1.71,1.11,9.31,9.31,0,0,0-1.38,1.62,11.05,11.05,0,0,0-1,1.95,12,12,0,0,0-.65,2.11,9.84,9.84,0,0,0-.23,2.09,8.59,8.59,0,0,0,.08,1.35,5.82,5.82,0,0,0,.26,1.17,4,4,0,0,0,.47,1,2.74,2.74,0,0,0,.68.72,2.86,2.86,0,0,0,.95.45,4,4,0,0,0,1.23.16,5.64,5.64,0,0,0,3.47-1.14Z" style="fill:#FFFFFF;stroke:#263238;stroke-linecap:round;stroke-linejoin:round"></path><path d="M292.16,277.6a21.46,21.46,0,0,1-21.53,21.91,22.38,22.38,0,0,1-22.3-21.91,21.45,21.45,0,0,1,21.53-21.92A22.39,22.39,0,0,1,292.16,277.6Z" style="fill:#fff;stroke:#263238;stroke-linecap:round;stroke-linejoin:round"></path><path d="M284,275.6c-6.87-4.5-20.34-4.5-26.89,0a5.08,5.08,0,0,0-4.14,5.19c.1,2.91,12.19,2.91,12.09,0a5.45,5.45,0,0,0-1.32-3.3,32.57,32.57,0,0,1,13.76,0,5.06,5.06,0,0,0-1.08,3.3c.1,2.91,12.19,2.91,12.08,0A5.54,5.54,0,0,0,284,275.6Z" style="fill:#FFFFFF;stroke:#263238;stroke-linecap:round;stroke-linejoin:round"></path><path d="M292.16,204.62c.12,5.39-2.82,10.21-7.54,13.42v13.09l-9.39-9.4a25.64,25.64,0,0,1-4.6.4c-12.1,0-22.09-7.84-22.3-17.51s9.42-17.5,21.53-17.5S292,195,292.16,204.62Z" style="fill:#fff;stroke:#263238;stroke-linecap:round;stroke-linejoin:round"></path><path d="M260.91,204.62a2.84,2.84,0,1,1-2.84-2.83A2.84,2.84,0,0,1,260.91,204.62Z" style="fill:#FFFFFF;stroke:#263238;stroke-linecap:round;stroke-linejoin:round"></path><path d="M273.06,204.62a2.84,2.84,0,1,1-2.84-2.83A2.84,2.84,0,0,1,273.06,204.62Z" style="fill:#FFFFFF;stroke:#263238;stroke-linecap:round;stroke-linejoin:round"></path><path d="M285.21,204.62a2.84,2.84,0,1,1-2.84-2.83A2.84,2.84,0,0,1,285.21,204.62Z" style="fill:#FFFFFF;stroke:#263238;stroke-linecap:round;stroke-linejoin:round"></path></g><g id="freepik--character-2--inject-2"><path d="M384.3,248.75s-34.85,10.8-41.41,2.27l.89-43.51h5.29l6.22,30.65,28.56-5.23S387.51,244.27,384.3,248.75Z" style="fill:#fff"></path><g style="clip-path:url(#freepik--clip-path--inject-2)"><path d="M369.62,250.27a30.17,30.17,0,0,0-5.69,3c2.36.75,4.88-.2,7.24-.95a73.39,73.39,0,0,1,9.51-2.24c.15-.89-1-2.92-1.45-3.71-.82-1.38-1-1.5-2.38-.82C374.34,246.81,372.2,249,369.62,250.27Z" style="fill:#FFFFFF"></path></g><path d="M384.3,248.75s-34.85,10.8-41.41,2.27l.89-43.51h5.29l6.22,30.65,28.56-5.23S387.51,244.27,384.3,248.75Z" style="fill:none;stroke:#263238;stroke-linecap:round;stroke-linejoin:round"></path><path d="M380.88,249.89,387,287.57c-.16,24.42,11.49,20.75,19.58,20.68,9.35-.08,23.54-9.35,16.58-23.78l2.68-52.23L409.55,231c-5.37-.42-27.37.27-29.12,3.08C375.89,241.37,380.88,249.89,380.88,249.89Z" style="fill:#fff"></path><g style="clip-path:url(#freepik--clip-path-2--inject-2)"><path d="M381.84,253a56.15,56.15,0,0,0,24.39,33.18,16.05,16.05,0,0,1-3.79-1.09,5.6,5.6,0,0,0-3.86-.21,2.48,2.48,0,0,0-1.49,3.18,3.54,3.54,0,0,0,1.16,1.15,26,26,0,0,0,6.45,3.3,16.92,16.92,0,0,0-6,.46c-.36,1.74,1.58,3,3.11,3.85a19.11,19.11,0,0,1,6.12,5.75,146.3,146.3,0,0,0-16.07.92,3.4,3.4,0,0,1-2.1-.2,3.34,3.34,0,0,1-1.3-2.13,54.73,54.73,0,0,1-2.06-12.77c-.1-2.43,0-4.88-.32-7.29a56.78,56.78,0,0,0-1.06-5.65q-2.33-10.82-3.57-21.81C381.08,253.67,381.84,253,381.84,253Z" style="fill:#FFFFFF"></path><path d="M423.15,250a11.52,11.52,0,0,1-3.71-2c.31,1.5,2.55,4.09,3.86,4.89.27.17.66.31.9.08s.4-.82.64-1Z" style="fill:#FFFFFF"></path></g><path d="M380.88,249.89,387,287.57c-.16,24.42,11.49,20.75,19.58,20.68,9.35-.08,23.54-9.35,16.58-23.78l2.68-52.23L409.55,231c-5.37-.42-27.37.27-29.12,3.08C375.89,241.37,380.88,249.89,380.88,249.89Z" style="fill:none;stroke:#263238;stroke-linecap:round;stroke-linejoin:round"></path><path d="M392.79,230.23a20.09,20.09,0,0,0-2.44,10.49,2.41,2.41,0,0,0,.18.93c.45.89,1.68.89,2.67,1,3.85.49,6.24,4.55,9.87,5.91a1.11,1.11,0,0,0,1.55-.4c1.58-2,2.14-4.81,4.3-6.1.94-.56,2.13-.79,2.78-1.67.74-1,.41-2.44.05-3.66-.59-2-1.25-4.08-2.78-5.47a9.45,9.45,0,0,0-5.7-2,26,26,0,0,0-9,.84C394.31,230.48,392.79,230.23,392.79,230.23Z" style="fill:#FFFFFF;stroke:#263238;stroke-linecap:round;stroke-linejoin:round"></path><path d="M441.19,255.8a36.9,36.9,0,0,1-5.32-11.7,30.51,30.51,0,0,0-1.82-6.11,11,11,0,0,0-7.89-5.85,4.16,4.16,0,0,0-2.16.1c-1.45.55-2.09,2.22-2.38,3.74a20.26,20.26,0,0,0,.54,9.81c.67,2.16,8.72,17.82,14,23.89C435.7,266.62,439.22,256.39,441.19,255.8Z" style="fill:#fff"></path><g style="clip-path:url(#freepik--clip-path-3--inject-2)"><path d="M425.4,252.73l4.94,9.31c.71,1.33,1.51,2.75,2.89,3.33a39.69,39.69,0,0,1-1.47-9.44,16.16,16.16,0,0,0-.55-4.76c-.2.17-.41-.55-.41-.55-.22.41-.8.42-1.25.33-3.23-.68-5.45-3.56-7.37-6.24a6.07,6.07,0,0,0,1,5.28S425.24,252.42,425.4,252.73Z" style="fill:#FFFFFF"></path></g><path d="M441.19,255.8a36.9,36.9,0,0,1-5.32-11.7,30.51,30.51,0,0,0-1.82-6.11,11,11,0,0,0-7.89-5.85,4.16,4.16,0,0,0-2.16.1c-1.45.55-2.09,2.22-2.38,3.74a20.26,20.26,0,0,0,.54,9.81c.67,2.16,8.72,17.82,14,23.89C435.7,266.62,439.22,256.39,441.19,255.8Z" style="fill:none;stroke:#263238;stroke-linecap:round;stroke-linejoin:round"></path><path d="M434.25,267c-5.38-10.31-2.78-34.07-2.94-37.89l7.1-.38c.71,0,4,20.26,6.24,28.67,2,7.66.08,15.41-3.46,15.41C438.25,272.81,435.38,269.17,434.25,267Z" style="fill:#fff;stroke:#263238;stroke-linecap:round;stroke-linejoin:round"></path><path d="M370.14,240.23c5-7.3,14.81-7.88,14.81-7.88" style="fill:none;stroke:#263238;stroke-linecap:round;stroke-linejoin:round"></path><path d="M350.85,244.32a13.88,13.88,0,0,0,3.47-5" style="fill:#fff;stroke:#263238;stroke-linecap:round;stroke-linejoin:round"></path><path d="M388,278.82c2.85,4.67,21.31,9.66,28.67,8.59" style="fill:none;stroke:#263238;stroke-linecap:round;stroke-linejoin:round"></path><path d="M393.22,292a38.68,38.68,0,0,0,16-.61" style="fill:none;stroke:#263238;stroke-linecap:round;stroke-linejoin:round"></path><path d="M417.71,246.69l3.52,4.77c.48.65,1.15,1.38,1.94,1.2" style="fill:none;stroke:#263238;stroke-linecap:round;stroke-linejoin:round"></path><path d="M443.87,427.63c-.31,1.27-.41,2.78.5,3.73s2.23.93,3.46.91l4.23-.08a11.9,11.9,0,0,0,4.79-.75,4,4,0,0,0,2.55-3.81,6.18,6.18,0,0,0-.6-1.82c-.38-.82-.76-1.65-1.13-2.47C453,413.05,445.87,419.31,443.87,427.63Z" style="fill:#fff;stroke:#263238;stroke-linecap:round;stroke-linejoin:round"></path><path d="M437.91,415.5a61.61,61.61,0,0,1-1.18,14.08c-.22,1.05,0,2.64,1,2.54a1.61,1.61,0,0,0,1-.57,28.69,28.69,0,0,0,7.61-13.17,4.19,4.19,0,0,0-.11-3.23,4.54,4.54,0,0,0-1-1.06C441.84,411.38,437.6,408.69,437.91,415.5Z" style="fill:#fff;stroke:#263238;stroke-linecap:round;stroke-linejoin:round"></path><path d="M426.3,294.63s5.27,9.16,6.4,11.29,25,33.5,29.58,56.34c.86,4.34-16.75,52.88-16.75,52.88l-4-2.26s2.78-44.27,2.1-47.95-18.25-30.84-18.25-30.84-9.81-7.21-13.85-15.59Z" style="fill:#263238"></path><path d="M426.87,317.58s-3,6.68-3,7.64,16.5,53.1,21.35,65.16q4.6,11.65,8.11,23.84s1.88,2.47.46,5-7.07,4.19-8.23,1.93-12.59-14-17.41-25.68S416.55,364.27,412.69,357a261.79,261.79,0,0,1-13.44-28.71c-4.85-12.41-9.81-25.79-9.81-25.79a49.07,49.07,0,0,0,6.06.17,50.5,50.5,0,0,0,14-2.48c10.54-3.54,15.1-10.32,15.1-10.32s2.61,7.07,3.29,8.44Z" style="fill:#263238"></path><path d="M460.52,366.73a14.79,14.79,0,0,1-4.08,4.51" style="fill:none;stroke:#fff;stroke-linecap:round;stroke-linejoin:round"></path><path d="M461.81,363.82a12.34,12.34,0,0,1-.54,1.43" style="fill:none;stroke:#fff;stroke-linecap:round;stroke-linejoin:round"></path><path d="M417.34,302c2.66,4.58,5.15,11.17,4.75,16.45a11.53,11.53,0,0,1-1,2.76" style="fill:none;stroke:#fff;stroke-linecap:round;stroke-linejoin:round"></path><path d="M401.24,307.09c.29,2.55.68,6.79.12,9.29a9.83,9.83,0,0,1-4.08,6.3" style="fill:none;stroke:#fff;stroke-linecap:round;stroke-linejoin:round"></path><path d="M423.92,297.44a9.5,9.5,0,0,1,1.4,2.39,10,10,0,0,0,6.52,4.94" style="fill:none;stroke:#fff;stroke-linecap:round;stroke-linejoin:round"></path><path d="M415.43,307.66c3.53,7.72,6.23,15.46,11.71,28.58" style="fill:none;stroke:#fff;stroke-linecap:round;stroke-linejoin:round"></path><path d="M413.55,303.71c.3.6.59,1.2.88,1.8" style="fill:none;stroke:#fff;stroke-linecap:round;stroke-linejoin:round"></path><path d="M442.93,362.77a36.67,36.67,0,0,0,6.11,8.52" style="fill:none;stroke:#fff;stroke-linecap:round;stroke-linejoin:round"></path><path d="M444.6,365.65a41.58,41.58,0,0,0,5.71,13.76" style="fill:none;stroke:#fff;stroke-linecap:round;stroke-linejoin:round"></path><path d="M419.74,365.9c-7.79-16.62-16.1-33.11-26.31-58.24" style="fill:none;stroke:#fff;stroke-linecap:round;stroke-linejoin:round"></path><path d="M421.5,370.73c-.19-.58-.39-1.16-.6-1.75" style="fill:none;stroke:#fff;stroke-linecap:round;stroke-linejoin:round"></path><path d="M448.43,421.83c-2-2.61-16.58-23-20.2-32.24-2.41-6.16-4.23-10.51-6-16.65" style="fill:none;stroke:#fff;stroke-linecap:round;stroke-linejoin:round"></path><line x1="442.93" y1="382.59" x2="449.86" y2="402.96" style="fill:none;stroke:#fff;stroke-linecap:round;stroke-linejoin:round"></line><path d="M438.26,228.74l-2.1.17a18.18,18.18,0,0,1-8-.37c-1.67-.41-5.54-1.61-6-1.69a34.51,34.51,0,0,0-3.48-.56c-3.53-.21-1.74-1.53-.27-1.47,1.94.09,2.59.05,4.08.16-.18-.1-.73-.21-.74-.64,0-1.05,1.38-1,1.38-1s-1.51-.64-1.3-1.43,1.22-1,1.86-.94c0,0-.85-.41-.81-.85.18-1.7,3.67-1.82,3.67-1.82a10.44,10.44,0,0,1-2.35-1.45,2.19,2.19,0,0,1-.53-1,1,1,0,0,1,1.44-1,31.45,31.45,0,0,1,2.61,1.94c1.08.77,2.33,1.26,3.47,1.95a10.33,10.33,0,0,1,2.63,3.45C434,222.47,438.26,228.74,438.26,228.74Z" style="fill:#fff;stroke:#263238;stroke-linecap:round;stroke-linejoin:round"></path><path d="M343.78,207.51V202a27.47,27.47,0,0,1,1.2-8.16c.46-1.46,1-2.73,1.49-2.92.91-.33,1.31,3.36,1.31,3.36a55.07,55.07,0,0,1-1.31-9c0-3.21,4.32,10.12,4.32,10.12l-1.72,12.11Z" style="fill:#fff;stroke:#263238;stroke-linecap:round;stroke-linejoin:round"></path><path d="M349,198.55a3.31,3.31,0,0,0,1.12-1.58" style="fill:#fff;stroke:#263238;stroke-linecap:round;stroke-linejoin:round"></path><path d="M390.88,219a21.45,21.45,0,0,1,3,10.37c.18,6.08,7.22,14.59,9.23,15s3.87-9.6,3.78-12.63-1.21-11.4-1.21-11.4S396.05,213.06,390.88,219Z" style="fill:#fff;stroke:#263238;stroke-linecap:round;stroke-linejoin:round"></path><path d="M393.71,227.05s9.23,12.59,12.85-.21S396.41,230.34,393.71,227.05Z" style="fill:#263238"></path><path d="M409.29,218c-.49,7.47-3.9,11.67-7.83,12.41-3.59.66-8.84-3-11.46-8.43h0c-.2-.13-3.39-2.34-4.15-2.88a3,3,0,0,1-1.28-2.47,2.33,2.33,0,0,1,1.58-2.08l.09,0a2.38,2.38,0,0,1,1.35.1c-.66-2.55-1.2-5.14-1.61-7.75.19-6,2.18-10.9,8.58-11.38s11.75,3.1,12,5.68c.18,2,.83,7.29,1.41,12.76C408.13,215.38,409.4,216.32,409.29,218Z" style="fill:#fff;stroke:#263238;stroke-linecap:round;stroke-linejoin:round"></path><path d="M406.56,209.36s-4.12-1.89-3.42,4.25c.14,1.21,2.39,3,2.39,3s-.58,1.81-1.65,1.81" style="fill:#fff;stroke:#263238;stroke-linecap:round;stroke-linejoin:round"></path><path d="M398.6,211.46s-2.1-1.28-3.54-.49a4.21,4.21,0,0,0-1.84,1.55" style="fill:#fff;stroke:#263238;stroke-linecap:round;stroke-linejoin:round"></path><path d="M397.4,215c.16.74,0,1.4-.43,1.49s-.85-.45-1-1.19,0-1.4.44-1.49S397.25,214.25,397.4,215Z" style="fill:#263238"></path><path d="M405.52,212.84c.16.74,0,1.4-.43,1.49s-.85-.45-1-1.18,0-1.41.43-1.49S405.37,212.11,405.52,212.84Z" style="fill:#263238"></path><path d="M385.5,199.15a5.28,5.28,0,0,0-1.46,2.63,16.6,16.6,0,0,0,1.53,12.71,6.2,6.2,0,0,1,2,.08c.7.18,1.6,1.38,1.93,2a5.92,5.92,0,0,1,.49,2.09c-.16-1.9-.31-3.79-.47-5.69a6.23,6.23,0,0,1,.1-2.28v0c.49-1.56-.05-5.24.09-8.53,4.15,5.07,10.18,4.17,12.18,4,3-.25,5.56-3.32,5.4-5.51s-.75-7.83-10.64-8.41a10.46,10.46,0,0,0-6.28,1.31,5.12,5.12,0,0,0-2.25,3.54c-.14.92.21,1-.49,1.45S386.19,198.56,385.5,199.15Z" style="fill:#263238;stroke:#263238;stroke-linecap:round;stroke-linejoin:round"></path><path d="M398.6,221.94s1.47,1.62,4.54.55" style="fill:#fff;stroke:#263238;stroke-linecap:round;stroke-linejoin:round"></path></g></svg>